<svg id="Capa_1" enable-background="new 0 0 512 512" height="512" viewBox="0 0 512 512" width="512" xmlns="http://www.w3.org/2000/svg"><g><path d="m58.186 349.008c0 4.142 3.358 7.5 7.5 7.5h16.981c28.056 48.369 94.798 56.121 133.225 15.423 12.137-12.854 12.137-32.992 0-45.846-15.978-16.922-37.589-26.242-60.854-26.242-30.088 0-57.4 15.853-72.372 41.665h-16.981c-4.142 0-7.499 3.358-7.499 7.5zm96.852-34.165c19.094 0 36.833 7.65 49.948 21.54 6.684 7.08 6.684 18.171 0 25.251-29.307 31.038-78.884 27.872-104.307-5.125h61.422c4.142 0 7.5-3.358 7.5-7.5s-3.358-7.5-7.5-7.5h-61.422c12.863-16.698 32.742-26.666 54.359-26.666z"/><path d="m427.473 21.434c-24.344 0-58.528 5.297-75.737 22.529l-117.341 117.34c-13.823-9.045-32.924-7.819-45.496 4.753l-38.473 38.473c-15.853-3.179-32.605 1.419-44.659 13.472l-15.436 15.436c-2.929 2.929-2.929 7.678 0 10.606 2.929 2.929 7.678 2.929 10.606 0l15.436-15.436c13.502-13.501 35.214-13.302 48.516 0 103.069 103.103 97.817 97.627 99.807 100.156 10.687 13.574 9.675 33.086-2.702 45.464l-91.315 91.315c-13.376 13.375-35.14 13.375-48.516 0l-97.104-97.104c-13.376-13.376-13.376-35.14 0-48.516l54.666-54.666c2.929-2.929 2.929-7.678 0-10.606-2.929-2.929-7.678-2.929-10.606 0l-54.666 54.666c-19.269 19.269-19.271 50.457 0 69.728l97.104 97.104c19.222 19.222 50.504 19.225 69.728 0l91.315-91.315c12.021-12.021 16.66-28.759 13.472-44.659l38.473-38.473c12.573-12.573 13.796-31.675 4.753-45.495l33.34-33.34c2.929-2.929 2.929-7.678 0-10.606-2.929-2.929-7.678-2.929-10.606 0l-32.79 32.79-73.691-73.691 99.212-99.212c13.478 32.631 81.149 37.137 118.326 29.055l-89.845 89.845c-2.929 2.929-2.929 7.678 0 10.606 2.929 2.929 7.678 2.929 10.606 0l119.335-119.334c5.243-5.243 8.815-11.822 8.815-19.19 0-23.771-36.339-41.695-84.527-41.695zm-113.534 239.525c8.328 8.328 8.329 21.807 0 30.136l-33.757 33.757c-2.061-3.469-4.785-6.95-7.582-9.747-104.486-104.484-99.209-100.145-106.851-104.686l33.757-33.757c8.328-8.328 21.808-8.329 30.137 0zm183.061-197.83c0 2.638-1.319 5.341-3.745 7.967-1.53 1.19-8.74 9.71-32.249 15.124-52.546 12.023-120.979-9.321-98.646-31.646.215-.215.408-.445.593-.68 10.066-9.388 34.406-17.46 64.52-17.46 39.794-.001 69.527 14.093 69.527 26.695z"/></g></svg>