<svg height="512" viewBox="0 0 60 60" width="512" xmlns="http://www.w3.org/2000/svg"><g id="017---No-Animal-Cruelty" fill="none"><g id="Icons" transform="translate(12 12)"><path id="Shape" d="m35 29.54c-.3485122 3.7825531-3.6050283 6.6254036-7.4 6.46-.7270609-.0233079-1.4378243.2183517-2 .68-3.8426662 3.1213815-9.3473338 3.1213815-13.19 0-1.52-1.25-2.3-.19-4.72-1.09-2.72078842-.9180479-4.60495224-3.404624-4.75274867-6.272316-.14779644-2.8676921 1.47075481-5.5347927 4.08274867-6.727684.04700291-1.902389.54389715-3.7665991 1.45-5.44-4.24-2.8-9.36-9.63-7-14.34.57381338-1.17681259 1.58632191-2.08160745 2.82-2.52 4.8-1.64 10.17 5.35 11.93 10.07.1624028.4532019.6246732.7263617 1.1.65 1.1477838-.1600054 2.3122162-.1600054 3.46 0 .4787496.0816188.9469275-.1925394 1.11-.65 2.02-5.46 8.31-12.86 13.11-9.36 2.7 2 3.25 6.3-.6 11.48-1.3354217 1.8351844-2.9718738 3.4310634-4.84 4.72.9012062 1.674827 1.3945695 3.5386442 1.44 5.44 2.6413539 1.2412629 4.2354265 3.9910383 4 6.9z" fill="#ffe0b2"/><path id="Shape" d="m35 29.54c-.3485122 3.7825531-3.6050283 6.6254036-7.4 6.46-.7270609-.0233079-1.4378243.2183517-2 .68-2.2605463 1.8447989-5.1942183 2.6508325-8.08 2.22 1.8649653-.2598237 3.6224625-1.0278638 5.08-2.22.5621757-.4616483 1.2729391-.7033079 2-.68 3.7949717.1654036 7.0514878-2.6774469 7.4-6.46.2354265-2.9089617-1.3586461-5.6587371-4-6.9-.0485104-1.9021722-.5453125-3.7660368-1.45-5.44 1.8681262-1.2889366 3.5045783-2.8848156 4.84-4.72 4.63-6.23 2.74-10.93-.64-12.14 4.78-1.46 9.54 4.2 3.64 12.14-1.3354217 1.8351844-2.9718738 3.4310634-4.84 4.72.9046875 1.6739632 1.4014896 3.5378278 1.45 5.44 2.6413539 1.2412629 4.2354265 3.9910383 4 6.9z" fill="#dfc49c"/><path id="Shape" d="m33.05 10.79c-1.86 2.37-4.43 3.59-6.23 3.1-4.41-1.17-1-9.87 4.37-11.14 4.09-.94 5.14 3.83 1.86 8.04z" fill="#bb193b"/><path id="Shape" d="m26.82 13.89c-4.41-1.17-1-9.87 4.37-11.14 4.4 1.16 1.02 9.87-4.37 11.14z" fill="#ef314c"/><path id="Shape" d="m12.11 13.43c-.8330802.5554242-1.8695408.7129076-2.83.43-4.74-1.2-8.12-8.35-5.19-10.66.24756578-.1854435.52484671-.32746544.82-.42 1.81-.57 4.44.65 6.34 3.07 2.21 2.83 2.6 6.22.86 7.58z" fill="#bb193b"/><path id="Shape" d="m10.11 13.43c-.24755606.1936435-.52902609.3394654-.83.43-4.74-1.2-8.12-8.35-5.19-10.66.24756578-.1854435.52484671-.32746544.82-.42 4.77 1.22 8.09 8.36 5.2 10.65z" fill="#ef314c"/></g><path id="Shape" d="m30 0c-16.5685425 0-30 13.4314575-30 30s13.4314575 30 30 30 30-13.4314575 30-30c0-7.9564947-3.1607052-15.5871121-8.7867966-21.21320344-5.6260913-5.62609135-13.2567087-8.78679656-21.2132034-8.78679656zm-28 30c-.00198481-7.0802235 2.68602964-13.8967708 7.52-19.07l3.19 3.19c-2.82 5 1.95 12 6.5 15.41-.650397 1.4082304-1.0400341 2.9227325-1.15 4.47-2.7306153 1.5457008-4.3055132 4.5449994-4.0276504 7.6704183.2778629 3.1254188 2.3571786 5.7998425 5.3176504 6.8395817 2.57.95 3.29 0 4.44.92 4.2116816 3.4246721 10.2483184 3.4246721 14.46 0 .3612871-.2992664.8214105-.4526409 1.29-.43 2.1740932.1146386 4.301006-.6617387 5.89-2.15l3.64 3.63c-8.1545866 7.584993-20.0290234 9.6161944-30.2411209 5.1729448-10.21209744-4.4432495-16.8201019-14.5160995-16.8288791-25.6529448zm39.84-2.24c-.3211693-.4959107-.6788251-.9672141-1.07-1.41-.3647578-.4137044-.9956033-.4539711-1.41-.09-.4137044.3647578-.4539711.9956033-.09 1.41 1.7137273 1.935074 2.684737 4.4157557 2.74 7 .0105217.3796784.235233.7206196.58.88 1.4924029.7098555 2.6259356 2.0038418 3.1331847 3.5766925.5072491 1.5728508.3432946 3.2852806-.4531847 4.7333075l-29.87-29.86c4.1-3.39 10 3.82 11.85 8.78.3270516.8940221 1.2389307 1.4336203 2.18 1.29 1.0546913-.1500302 2.1253087-.1500302 3.18 0 .9410693.1436203 1.8529484-.3959779 2.18-1.29 1.79-4.8 7.52-12 11.62-9 .9266578.6754148 1.5342959 1.7026126 1.68 2.84.6 3.94-3.09 8.72-6.25 11.14zm2.16 17.66c-1.172465 1.0935494-2.7389071 1.663821-4.34 1.58-.9750031-.0497068-1.9326245.2718825-2.68.9-3.470915 2.8257924-8.449085 2.8257924-11.92 0-.6957437-.5676022-1.5622279-.8846087-2.46-.9-.8819507.0799365-1.7705829-.0396871-2.6-.35-2.3054389-.8005598-3.8962768-2.9177542-4.0236237-5.3549098s1.2341739-4.7086173 3.4436237-5.7450902c.3408725-.162229.5613346-.5025914.57-.88.056128-2.5840713 1.0270253-5.0644658 2.74-7 .335802-.416915.2837133-1.024335-.1181682-1.3779907s-1.0109946-.3280933-1.3818318.0579907c-.3848503.4454579-.7389987.9165421-1.06 1.41-3.4-2.62-7.58-8.13-6-12.14zm6.47 3.65-3.76-3.76c1.2033453-1.8423318 1.594688-4.0989839 1.0819367-6.2389167-.5127514-2.1399329-1.8843167-3.9741729-3.7919367-5.0710833-.1081213-1.5528476-.4942505-3.0736549-1.14-4.49 3.75-2.8 8-8.33 7.23-13.18-.2228872-1.6675015-1.1191453-3.1709022-2.48-4.16-5.5-4-12.28 3.62-14.7 9.88-1.2475652-.1700511-2.5124348-.1700511-3.76 0-2.45-6.49-9.69-14.29-15.15-9.48l-3.07-3.05c11.0626213-10.02365305 28.0437036-9.60555858 38.5996311.9503689 10.5559275 10.5559275 10.974022 27.5370098.9503689 38.5996311z" fill="#000"/></g></svg>