<svg height="512" viewBox="0 0 42 60" width="512" xmlns="http://www.w3.org/2000/svg"><g id="012---Organic-Product" fill="none"><g id="Icons" transform="translate(1 1)"><path id="Shape" d="m38 10h-5c-.5522847 0-1-.44771525-1-1v-7c0-1.1045695-.8954305-2-2-2h-20c-1.1045695 0-2 .8954305-2 2v7c0 .55228475-.44771525 1-1 1h-5c-1.1045695 0-2 .8954305-2 2v44c0 1.1045695.8954305 2 2 2h36c1.1045695 0 2-.8954305 2-2v-44c0-1.1045695-.8954305-2-2-2zm-10-1c0 .55228475-.4477153 1-1 1h-14c-.5522847 0-1-.44771525-1-1v-4c0-.55228475.4477153-1 1-1h14c.5522847 0 1 .44771525 1 1z" fill="#ffe0b2"/><path id="Shape" d="m33 10h-3c-.5522847 0-1-.44771525-1-1v-7c0-1.1045695-.8954305-2-2-2h3c1.1045695 0 2 .8954305 2 2v7c0 .55228475.4477153 1 1 1z" fill="#dfc49c"/><path id="Shape" d="m40 12v44c0 1.1045695-.8954305 2-2 2h-3c1.1045695 0 2-.8954305 2-2v-44c0-1.1045695-.8954305-2-2-2h3c1.1045695 0 2 .8954305 2 2z" fill="#dfc49c"/><path id="Shape" d="m25 24.27c0 3.88-3.28 6.61-6.5 5.47-2.1927977-.9155353-3.587569-3.0953635-3.5-5.47 0-2.34 2.72-5.72 4.26-7.47.1895245-.2085142.458224-.3273931.74-.3273931s.5504755.1188789.74.3273931c1.4 1.57 4.26 5.08 4.26 7.47z" fill="#549414"/><path id="Shape" d="m22 24.27c.087569 2.3746365-1.3072023 4.5544647-3.5 5.47-2.1927977-.9155353-3.587569-3.0953635-3.5-5.47 0-2 2-4.8 3.5-6.58 1.5 1.78 3.5 4.57 3.5 6.58z" fill="#60a917"/><path id="Shape" d="m14.61 39.73c-1.0414081.9438455-2.4172341 1.4316584-3.8206023 1.3546328-1.40336823-.0770255-2.71754222-.7124823-3.6493977-1.7646328-1.65-1.67-2-6.19-2.11-8.26 0-.5522847.44771525-1 1-1 2.06.09 6.51.48 8.15 2.14 2.1526044 1.982348 2.3429431 5.3154893.43 7.53z" fill="#549414"/><path id="Shape" d="m9.72 40.88c-.97876002-.2919298-1.86679586-.8288817-2.58-1.56-1.65-1.67-2-6.19-2.11-8.26-.0206943-.3275226.13092208-.6421266.4-.83 2.12.24 4.63.78 5.78 1.94 2.91 2.95 2.05 7.6-1.49 8.71z" fill="#60a917"/><path id="Shape" d="m35 34.06c-.09 2.07-.47 6.59-2.12 8.26-1.4255575 1.5165742-3.5746249 2.1173888-5.58 1.56-3.55-1.12-4.39-5.77-1.49-8.71 1.61-1.62 5.88-2 8.15-2.14.2773666-.0112356.546923.093328.7441576.2886661s.3043977.4638717.2958424.7413339z" fill="#549414"/><path id="Shape" d="m32 34.06c-.09 2.07-.47 6.59-2.12 8.26-.7132041.7311183-1.60124 1.2680702-2.58 1.56-3.55-1.12-4.39-5.77-1.49-8.71 1.15-1.16 3.67-1.7 5.78-1.94.2642097.1929419.4173327.5029227.41.83z" fill="#60a917"/></g><g id="Layer_2" fill="#000"><path id="Shape" d="m39 10h-5v-7c0-1.65685425-1.3431458-3-3-3h-20c-1.65685425 0-3 1.34314575-3 3v7h-5c-1.65685425 0-3 1.3431458-3 3v44c0 1.6568542 1.34314575 3 3 3h36c1.6568542 0 3-1.3431458 3-3v-44c0-1.6568542-1.3431458-3-3-3zm1 47c0 .5522847-.4477153 1-1 1h-36c-.55228475 0-1-.4477153-1-1v-44c0-.5522847.44771525-1 1-1h5c1.1045695 0 2-.8954305 2-2v-7c0-.55228475.4477153-1 1-1h20c.5522847 0 1 .44771525 1 1v7c0 1.1045695.8954305 2 2 2h5c.5522847 0 1 .4477153 1 1z"/><path id="Shape" d="m14 12h14c1.1045695 0 2-.8954305 2-2v-4c0-1.1045695-.8954305-2-2-2h-14c-1.1045695 0-2 .8954305-2 2v4c0 1.1045695.8954305 2 2 2zm0-6h14v4h-14z"/><path id="Shape" d="m36 33c-.76 0-7.53 0-9.93 2.47-1.9948193 1.9439051-2.5692686 4.9238611-1.44 7.47-.9981893 1.0156771-1.8802816 2.1392547-2.63 3.35v-14.39c3.0313471-.7396216 5.1222218-3.5121214 5-6.63 0-3.47-4.74-8.42-5.29-9-.1877666-.1893127-.4433625-.2957983-.71-.2957983s-.5222334.1064856-.71.2957983c-.55.55-5.29 5.5-5.29 9-.1222218 3.1178786 1.9686529 5.8903784 5 6.63v11.39c-.7497184-1.2107453-1.6318107-2.3343229-2.63-3.35 1.132305-2.5457919.5575091-5.5275457-1.44-7.47-2.4-2.47-9.18-2.47-9.93-2.47-.55228475 0-1 .4477153-1 1 0 .77 0 7.6 2.43 10 2.27312079 2.5135393 6.1337147 2.761752 8.71.56 2 2.09 3.86 5 3.86 8.42v2h-8c-.5522847 0-1 .4477153-1 1s.4477153 1 1 1h13c.5522847 0 1-.4477153 1-1s-.4477153-1-1-1h-2.93c.4186225-2.8210171 1.7498325-5.4272383 3.79-7.42 2.574483 2.2071568 6.4393588 1.9586688 8.71-.56 2.43-2.4 2.43-9.23 2.43-10 0-.5522847-.4477153-1-1-1zm-27.15 6.62c-1.2-1.22-1.73-4.95-1.85-7.62 2.61.11 6.28.64 7.48 1.86 1.2277837 1.1886797 1.7206632 2.9462341 1.29 4.6-1.0300258-.8772211-2.1341592-1.6634979-3.3-2.35-.4804877-.2761423-1.0938576-.1104877-1.3699999.37-.2761424.4804877-.1104878 1.0938576.3699999 1.37 1.128681.6745137 2.193137 1.4510979 3.18 2.32-1.7804799 1.358836-4.3066694 1.1192835-5.8-.55zm8.15-14.35c0-1.91 2.46-5.07 4-6.8 1.54 1.73 4 4.89 4 6.8.0911475 2.0087697-1.1192304 3.8485442-3 4.56v-4.83c0-.5522847-.4477153-1-1-1s-1 .4477153-1 1v4.83c-1.8807696-.7114558-3.0911475-2.5512303-3-4.56zm16.15 17.35c-1.4892513 1.7028872-4.0448991 1.9567015-5.84.58.9884065-.8699305 2.0526472-1.6497044 3.18-2.33.4804877-.2761424.6461423-.8895123.37-1.37-.2761424-.4804877-.8895123-.6461424-1.37-.37-1.1658408.6865021-2.2699742 1.4727789-3.3 2.35-.4306632-1.6537659.0622163-3.4113203 1.29-4.6 1.22-1.21 4.89-1.75 7.52-1.88-.12 2.67-.65 6.4-1.85 7.62z"/><path id="Shape" d="m30 52h-1c-.5522847 0-1 .4477153-1 1s.4477153 1 1 1h1c.5522847 0 1-.4477153 1-1s-.4477153-1-1-1z"/></g></g></svg>